<svg xmlns="http://www.w3.org/2000/svg" width="32" height="32" id="ecommerce"><path style="line-height:normal;text-indent:0;text-align:start;text-decoration-line:none;text-decoration-style:solid;text-decoration-color:#000;text-transform:none;block-progression:tb;isolation:auto;mix-blend-mode:normal" d="M4.5 1024.361a.5.5 0 0 0-.5.5v18a.5.5 0 0 0 .002.051.5.5 0 0 0 .02.098.5.5 0 0 0 .017.047.5.5 0 0 0 .078.127.5.5 0 0 0 .035.037.5.5 0 0 0 .078.062.5.5 0 0 0 .137.061.5.5 0 0 0 .133.017h23a.5.5 0 0 0 .1-.01.5.5 0 0 0 .095-.029.5.5 0 0 0 .045-.022.5.5 0 0 0 .082-.057.5.5 0 0 0 .07-.07.5.5 0 0 0 .028-.04.5.5 0 0 0 .025-.044.5.5 0 0 0 .022-.047.5.5 0 0 0 .015-.047.5.5 0 0 0 .01-.049.5.5 0 0 0 .006-.049.5.5 0 0 0 .002-.037v-18a.5.5 0 0 0-.5-.5h-23zm.5 1h22v17H5v-17z" color="#000" font-family="sans-serif" font-weight="400" overflow="visible" transform="translate(0 -1020.362)"></path><path fill-rule="evenodd" d="M5 1039.361v1h22v-1H5z" color="#000" font-family="sans-serif" font-weight="400" overflow="visible" style="line-height:normal;text-indent:0;text-align:start;text-decoration-line:none;text-decoration-style:solid;text-decoration-color:#000;text-transform:none;block-progression:tb;isolation:auto;mix-blend-mode:normal" transform="translate(0 -1020.362)"></path><path style="line-height:normal;text-indent:0;text-align:start;text-decoration-line:none;text-decoration-style:solid;text-decoration-color:#000;text-transform:none;block-progression:tb;isolation:auto;mix-blend-mode:normal" d="M12.5 1042.361a.5.5 0 0 0-.5.5v4a.5.5 0 0 0 .5.5h7a.5.5 0 0 0 .5-.5v-4a.5.5 0 0 0-.5-.5h-7zm.5 1h6v3h-6v-3z" color="#000" font-family="sans-serif" font-weight="400" overflow="visible" transform="translate(0 -1020.362)"></path><path fill-rule="evenodd" d="M9 1046.361v1h14v-1H9z" color="#000" font-family="sans-serif" font-weight="400" overflow="visible" style="line-height:normal;text-indent:0;text-align:start;text-decoration-line:none;text-decoration-style:solid;text-decoration-color:#000;text-transform:none;block-progression:tb;isolation:auto;mix-blend-mode:normal" transform="translate(0 -1020.362)"></path><path fill="#25b39e" d="M6 1027.362h20v11H6z" color="#000" overflow="visible" style="isolation:auto;mix-blend-mode:normal" transform="translate(0 -1020.362)"></path><path fill="#f8b84e" stroke="#000" stroke-dashoffset="2.5" stroke-linecap="round" stroke-linejoin="round" d="M13.748 1026.862H26.07l3.397 3.192.032 1.055v-.288.542c0 .83-.669 1.5-1.5 1.5s-1.5-.67-1.5-1.5h0c0 .83-.669 1.5-1.5 1.5-.83 0-1.5-.67-1.5-1.5h0c0 .83-.669 1.5-1.5 1.5-.83 0-1.5-.67-1.5-1.5h0c0 .83-.669 1.5-1.5 1.5-.83 0-1.5-.67-1.5-1.5h0c0 .83-.669 1.5-1.5 1.5-.83 0-1.5-.67-1.5-1.5h0c0 .83-.669 1.5-1.5 1.5-.83 0-1.5-.67-1.5-1.5h0c0 .83-.669 1.5-1.5 1.5-.83 0-1.5-.67-1.5-1.5h0c0 .83-.669 1.5-1.5 1.5-.83 0-1.5-.67-1.5-1.5h0c0 .83-.669 1.5-1.5 1.5s-1.5-.67-1.5-1.5v-.49.236l.031-1.055 3.398-3.192h9.009" color="#000" overflow="visible" style="isolation:auto;mix-blend-mode:normal" transform="translate(0 -1020.362)"></path><path fill="none" stroke="#000" d="M3 9h26"></path></svg>